<?xml version="1.0" encoding="UTF-8"?><svg xmlns="http://www.w3.org/2000/svg" xmlns:xlink="http://www.w3.org/1999/xlink" fill-opacity="1" color-rendering="auto" color-interpolation="auto" text-rendering="auto" stroke="black" stroke-linecap="square" width="586" stroke-miterlimit="10" shape-rendering="auto" stroke-opacity="1" fill="black" stroke-dasharray="none" font-weight="normal" stroke-width="1" height="540" font-family="'Dialog'" font-style="normal" stroke-linejoin="miter" font-size="12px" stroke-dashoffset="0" image-rendering="auto">
  <!--Generated by ySVG 2.6-->
  <defs id="genericDefs"/>
  <g>
    <defs id="defs1">
      <linearGradient x1="500" gradientUnits="userSpaceOnUse" x2="580" y1="190" y2="230" id="linearGradient1" spreadMethod="reflect">
        <stop stop-opacity="1" stop-color="rgb(232,238,247)" offset="0%"/>
        <stop stop-opacity="1" stop-color="rgb(183,201,227)" offset="100%"/>
      </linearGradient>
      <linearGradient x1="680" gradientUnits="userSpaceOnUse" x2="760" y1="370" y2="410" id="linearGradient2" spreadMethod="reflect">
        <stop stop-opacity="1" stop-color="rgb(232,238,247)" offset="0%"/>
        <stop stop-opacity="1" stop-color="rgb(183,201,227)" offset="100%"/>
      </linearGradient>
      <linearGradient x1="184" gradientUnits="userSpaceOnUse" x2="356" y1="370" y2="410" id="linearGradient3" spreadMethod="reflect">
        <stop stop-opacity="1" stop-color="rgb(232,238,247)" offset="0%"/>
        <stop stop-opacity="1" stop-color="rgb(183,201,227)" offset="100%"/>
      </linearGradient>
      <linearGradient x1="184" gradientUnits="userSpaceOnUse" x2="356" y1="540" y2="600" id="linearGradient4" spreadMethod="reflect">
        <stop stop-opacity="1" stop-color="rgb(232,238,247)" offset="0%"/>
        <stop stop-opacity="1" stop-color="rgb(183,201,227)" offset="100%"/>
      </linearGradient>
      <clipPath clipPathUnits="userSpaceOnUse" id="clipPath1">
        <path d="M0 0 L586 0 L586 540 L0 540 L0 0 Z"/>
      </clipPath>
      <clipPath clipPathUnits="userSpaceOnUse" id="clipPath2">
        <path d="M179 185 L765 185 L765 725 L179 725 L179 185 Z"/>
      </clipPath>
    </defs>
    <g fill="url(#linearGradient1)" text-rendering="geometricPrecision" shape-rendering="geometricPrecision" transform="matrix(1,0,0,1,-179,-185)" stroke="url(#linearGradient1)">
      <ellipse rx="40" ry="20" clip-path="url(#clipPath2)" cx="540" cy="210" stroke="none"/>
    </g>
    <g text-rendering="geometricPrecision" stroke-miterlimit="1.45" shape-rendering="geometricPrecision" transform="matrix(1,0,0,1,-179,-185)" stroke-linecap="butt">
      <ellipse rx="40" fill="none" ry="20" clip-path="url(#clipPath2)" cx="540" cy="210"/>
      <text x="527.3291" xml:space="preserve" y="214.7139" clip-path="url(#clipPath2)" font-family="sans-serif" stroke="none">Start</text>
    </g>
    <g fill="rgb(204,255,204)" text-rendering="geometricPrecision" shape-rendering="geometricPrecision" transform="matrix(1,0,0,1,-179,-185)" stroke="rgb(204,255,204)">
      <path d="M500 280 L580 280 L580 320 L500 320 Z" stroke="none" clip-path="url(#clipPath2)"/>
    </g>
    <g text-rendering="geometricPrecision" stroke-miterlimit="1.45" shape-rendering="geometricPrecision" transform="matrix(1,0,0,1,-179,-185)" stroke-linecap="butt">
      <path fill="none" d="M500 280 L580 280 L580 320 L500 320 Z" clip-path="url(#clipPath2)"/>
      <text x="510.3135" xml:space="preserve" y="304.7139" clip-path="url(#clipPath2)" font-family="sans-serif" stroke="none">GameLoop</text>
    </g>
    <g fill="rgb(204,255,204)" text-rendering="geometricPrecision" shape-rendering="geometricPrecision" transform="matrix(1,0,0,1,-179,-185)" stroke="rgb(204,255,204)">
      <path d="M540 361 L598 390 L540 419 L482 390 Z" stroke="none" clip-path="url(#clipPath2)"/>
    </g>
    <g text-rendering="geometricPrecision" stroke-miterlimit="1.45" shape-rendering="geometricPrecision" transform="matrix(1,0,0,1,-179,-185)" stroke-linecap="butt">
      <path fill="none" d="M540 361 L598 390 L540 419 L482 390 Z" clip-path="url(#clipPath2)"/>
      <text x="524.9971" xml:space="preserve" y="387.3633" clip-path="url(#clipPath2)" font-family="sans-serif" stroke="none">While</text>
      <text x="529.6611" xml:space="preserve" y="402.0645" clip-path="url(#clipPath2)" font-family="sans-serif" stroke="none">true</text>
    </g>
    <g fill="rgb(204,255,255)" text-rendering="geometricPrecision" shape-rendering="geometricPrecision" transform="matrix(1,0,0,1,-179,-185)" stroke="rgb(204,255,255)">
      <path d="M500 460 L580 460 L580 500 L500 500 Z" stroke="none" clip-path="url(#clipPath2)"/>
    </g>
    <g text-rendering="geometricPrecision" stroke-miterlimit="1.45" shape-rendering="geometricPrecision" transform="matrix(1,0,0,1,-179,-185)" stroke-linecap="butt">
      <path fill="none" d="M500 460 L580 460 L580 500 L500 500 Z" clip-path="url(#clipPath2)"/>
      <text x="509.6514" xml:space="preserve" y="484.7139" clip-path="url(#clipPath2)" font-family="sans-serif" stroke="none">Scene XYZ</text>
    </g>
    <g fill="rgb(204,255,204)" text-rendering="geometricPrecision" shape-rendering="geometricPrecision" transform="matrix(1,0,0,1,-179,-185)" stroke="rgb(204,255,204)">
      <path d="M540 541 L598 570 L540 599 L482 570 Z" stroke="none" clip-path="url(#clipPath2)"/>
    </g>
    <g text-rendering="geometricPrecision" stroke-miterlimit="1.45" shape-rendering="geometricPrecision" transform="matrix(1,0,0,1,-179,-185)" stroke-linecap="butt">
      <path fill="none" d="M540 541 L598 570 L540 599 L482 570 Z" clip-path="url(#clipPath2)"/>
      <text x="524.9971" xml:space="preserve" y="567.3633" clip-path="url(#clipPath2)" font-family="sans-serif" stroke="none">While</text>
      <text x="529.6611" xml:space="preserve" y="582.0645" clip-path="url(#clipPath2)" font-family="sans-serif" stroke="none">true</text>
    </g>
    <g fill="rgb(204,255,255)" text-rendering="geometricPrecision" shape-rendering="geometricPrecision" transform="matrix(1,0,0,1,-179,-185)" stroke="rgb(204,255,255)">
      <path d="M469 640 L611 640 L611 680 L469 680 Z" stroke="none" clip-path="url(#clipPath2)"/>
    </g>
    <g text-rendering="geometricPrecision" stroke-miterlimit="1.45" shape-rendering="geometricPrecision" transform="matrix(1,0,0,1,-179,-185)" stroke-linecap="butt">
      <path fill="none" d="M469 640 L611 640 L611 680 L469 680 Z" clip-path="url(#clipPath2)"/>
      <text x="499.9805" xml:space="preserve" y="664.7139" clip-path="url(#clipPath2)" font-family="sans-serif" stroke="none">SceneAnswers</text>
    </g>
    <g fill="url(#linearGradient2)" text-rendering="geometricPrecision" shape-rendering="geometricPrecision" transform="matrix(1,0,0,1,-179,-185)" stroke="url(#linearGradient2)">
      <rect x="680" y="370" clip-path="url(#clipPath2)" width="80" rx="20" ry="20" height="40" stroke="none"/>
    </g>
    <g text-rendering="geometricPrecision" stroke-miterlimit="1.45" shape-rendering="geometricPrecision" transform="matrix(1,0,0,1,-179,-185)" stroke-linecap="butt">
      <rect x="680" y="370" clip-path="url(#clipPath2)" fill="none" width="80" rx="20" ry="20" height="40"/>
      <text x="705.9873" xml:space="preserve" y="394.7139" clip-path="url(#clipPath2)" font-family="sans-serif" stroke="none">Ende</text>
    </g>
    <g fill="url(#linearGradient3)" text-rendering="geometricPrecision" shape-rendering="geometricPrecision" transform="matrix(1,0,0,1,-179,-185)" stroke="url(#linearGradient3)">
      <rect x="184" width="172" height="40" y="370" clip-path="url(#clipPath2)" stroke="none"/>
    </g>
    <g text-rendering="geometricPrecision" stroke-miterlimit="1.45" shape-rendering="geometricPrecision" transform="matrix(1,0,0,1,-179,-185)" stroke-linecap="butt">
      <path fill="none" d="M205.5 370 L184 370 L184 410 L205.5 410" clip-path="url(#clipPath2)"/>
      <text x="198.29" xml:space="preserve" y="387.3633" clip-path="url(#clipPath2)" font-family="sans-serif" stroke="none">Hauptschleife der Methode</text>
      <text x="198.29" xml:space="preserve" y="402.0645" clip-path="url(#clipPath2)" font-family="sans-serif" stroke="none">start() in GameLoop.php</text>
    </g>
    <g fill="url(#linearGradient4)" text-rendering="geometricPrecision" shape-rendering="geometricPrecision" transform="matrix(1,0,0,1,-179,-185)" stroke="url(#linearGradient4)">
      <rect x="184" width="172" height="60" y="540" clip-path="url(#clipPath2)" stroke="none"/>
    </g>
    <g text-rendering="geometricPrecision" stroke-miterlimit="1.45" shape-rendering="geometricPrecision" transform="matrix(1,0,0,1,-179,-185)" stroke-linecap="butt">
      <path fill="none" d="M205.5 540 L184 540 L184 600 L205.5 600" clip-path="url(#clipPath2)"/>
      <text x="196.6318" xml:space="preserve" y="560.0127" clip-path="url(#clipPath2)" font-family="sans-serif" stroke="none">Zweite Schleife zur Abfrage</text>
      <text x="196.6318" xml:space="preserve" y="574.7139" clip-path="url(#clipPath2)" font-family="sans-serif" stroke="none">der Eingaben innerhalb</text>
      <text x="196.6318" xml:space="preserve" y="589.415" clip-path="url(#clipPath2)" font-family="sans-serif" stroke="none">der Hauptschleife</text>
    </g>
    <g text-rendering="geometricPrecision" stroke-miterlimit="1.45" shape-rendering="geometricPrecision" transform="matrix(1,0,0,1,-179,-185)" stroke-linecap="butt">
      <path fill="none" d="M540 229.9951 L540 272.0035" clip-path="url(#clipPath2)"/>
    </g>
    <g text-rendering="geometricPrecision" stroke-miterlimit="1.45" shape-rendering="geometricPrecision" transform="matrix(1,0,0,1,-179,-185)" stroke-linecap="butt">
      <path d="M540 280.0035 L545 268.0035 L540 271.0035 L535 268.0035 Z" stroke="none" clip-path="url(#clipPath2)"/>
      <path fill="none" d="M540 319.9951 L540 352.9659" clip-path="url(#clipPath2)"/>
      <path d="M540 360.9659 L545 348.9659 L540 351.9659 L535 348.9659 Z" clip-path="url(#clipPath2)" stroke="none"/>
      <path fill="none" d="M540 418.96 L540 452.001" clip-path="url(#clipPath2)"/>
      <path d="M540 460.001 L545 448.001 L540 451.001 L535 448.001 Z" clip-path="url(#clipPath2)" stroke="none"/>
      <text x="499.6611" xml:space="preserve" y="444.2139" clip-path="url(#clipPath2)" font-family="sans-serif" stroke="none">true</text>
      <path fill="none" d="M540 499.9951 L540 532.9794" clip-path="url(#clipPath2)"/>
      <path d="M540 540.9794 L545 528.9794 L540 531.9794 L535 528.9794 Z" clip-path="url(#clipPath2)" stroke="none"/>
      <path fill="none" d="M482.0361 570 L450 570 L450 390 L474.0303 390" clip-path="url(#clipPath2)"/>
      <path d="M482.0303 390 L470.0303 385 L473.0303 390 L470.0303 395 Z" clip-path="url(#clipPath2)" stroke="none"/>
      <text x="407.3262" xml:space="preserve" y="574.7139" clip-path="url(#clipPath2)" font-family="sans-serif" stroke="none">false</text>
      <path fill="none" d="M540 598.96 L540 632.001" clip-path="url(#clipPath2)"/>
      <path d="M540 640.001 L545 628.001 L540 631.001 L535 628.001 Z" clip-path="url(#clipPath2)" stroke="none"/>
      <text x="499.6611" xml:space="preserve" y="624.2139" clip-path="url(#clipPath2)" font-family="sans-serif" stroke="none">true</text>
      <path fill="none" d="M540 680.0098 L540 720 L630 720 L630 570 L605.9639 570" clip-path="url(#clipPath2)"/>
      <path d="M597.9639 570 L609.9639 575 L606.9639 570 L609.9639 565 Z" clip-path="url(#clipPath2)" stroke="none"/>
      <path fill="none" d="M597.9639 390 L671.9867 390" clip-path="url(#clipPath2)"/>
      <path d="M679.9867 390 L667.9867 385 L670.9867 390 L667.9867 395 Z" clip-path="url(#clipPath2)" stroke="none"/>
      <text x="626.3262" xml:space="preserve" y="424.7139" clip-path="url(#clipPath2)" font-family="sans-serif" stroke="none">false</text>
    </g>
  </g>
</svg>
